<?xml version="1.0" encoding="UTF-8"?>
<svg version="1.1" xmlns="http://www.w3.org/2000/svg" width="96" height="96">
<path d="M0 0 C31.68 0 63.36 0 96 0 C96 31.68 96 63.36 96 96 C64.32 96 32.64 96 0 96 C0 64.32 0 32.64 0 0 Z " fill="#AA5C56" transform="translate(0,0)"/>
<path d="M0 0 C6.6 0 13.2 0 20 0 C20 31.68 20 63.36 20 96 C-11.68 96 -43.36 96 -76 96 C-76 81.48 -76 66.96 -76 52 C-74.68 52 -73.36 52 -72 52 C-72 53.32 -72 54.64 -72 56 C-70.68 56 -69.36 56 -68 56 C-68 54.68 -68 53.36 -68 52 C-66.68 52 -65.36 52 -64 52 C-64 48.04 -64 44.08 -64 40 C-65.32 40 -66.64 40 -68 40 C-68 36.04 -68 32.08 -68 28 C-66.68 28 -65.36 28 -64 28 C-64 29.32 -64 30.64 -64 32 C-62.68 32 -61.36 32 -60 32 C-60 35.96 -60 39.92 -60 44 C-58.68 44 -57.36 44 -56 44 C-56 45.32 -56 46.64 -56 48 C-50.72 48 -45.44 48 -40 48 C-40 50.64 -40 53.28 -40 56 C-41.32 56 -42.64 56 -44 56 C-44 57.32 -44 58.64 -44 60 C-45.32 60 -46.64 60 -48 60 C-48 65.28 -48 70.56 -48 76 C-46.68 76 -45.36 76 -44 76 C-44 77.32 -44 78.64 -44 80 C-41.36 80 -38.72 80 -36 80 C-36 81.32 -36 82.64 -36 84 C-32.04 84 -28.08 84 -24 84 C-24 85.32 -24 86.64 -24 88 C-20.04 88 -16.08 88 -12 88 C-12 86.68 -12 85.36 -12 84 C-10.68 84 -9.36 84 -8 84 C-8 81.36 -8 78.72 -8 76 C-5.36 76 -2.72 76 0 76 C0 73.36 0 70.72 0 68 C1.32 68 2.64 68 4 68 C4 65.36 4 62.72 4 60 C5.32 60 6.64 60 8 60 C8 56.04 8 52.08 8 48 C9.32 48 10.64 48 12 48 C12 41.4 12 34.8 12 28 C10.68 28 9.36 28 8 28 C8 24.04 8 20.08 8 16 C6.68 16 5.36 16 4 16 C4 13.36 4 10.72 4 8 C2.68 8 1.36 8 0 8 C0 5.36 0 2.72 0 0 Z " fill="#723F3D" transform="translate(76,0)"/>
<path d="M0 0 C2.64 0 5.28 0 8 0 C8 1.32 8 2.64 8 4 C14.6 4 21.2 4 28 4 C28 6.64 28 9.28 28 12 C26.68 12 25.36 12 24 12 C24 15.96 24 19.92 24 24 C25.32 24 26.64 24 28 24 C28 27.96 28 31.92 28 36 C26.68 36 25.36 36 24 36 C24 38.64 24 41.28 24 44 C22.68 44 21.36 44 20 44 C20 45.32 20 46.64 20 48 C16.04 48 12.08 48 8 48 C8 46.68 8 45.36 8 44 C4.04 44 0.08 44 -4 44 C-4 42.68 -4 41.36 -4 40 C-6.64 40 -9.28 40 -12 40 C-12 38.68 -12 37.36 -12 36 C-13.32 36 -14.64 36 -16 36 C-16 30.72 -16 25.44 -16 20 C-14.68 20 -13.36 20 -12 20 C-12 18.68 -12 17.36 -12 16 C-10.68 16 -9.36 16 -8 16 C-8 14.68 -8 13.36 -8 12 C-6.68 12 -5.36 12 -4 12 C-4 10.68 -4 9.36 -4 8 C-2.68 8 -1.36 8 0 8 C0 5.36 0 2.72 0 0 Z " fill="#E8BD8A" transform="translate(44,40)"/>
<path d="M0 0 C6.6 0 13.2 0 20 0 C20 26.4 20 52.8 20 80 C18.68 80 17.36 80 16 80 C16 76.04 16 72.08 16 68 C13.36 68 10.72 68 8 68 C8 70.64 8 73.28 8 76 C6.68 76 5.36 76 4 76 C4 78.64 4 81.28 4 84 C2.68 84 1.36 84 0 84 C0 85.32 0 86.64 0 88 C-2.64 88 -5.28 88 -8 88 C-8 89.32 -8 90.64 -8 92 C-13.28 92 -18.56 92 -24 92 C-24 90.68 -24 89.36 -24 88 C-20.04 88 -16.08 88 -12 88 C-12 86.68 -12 85.36 -12 84 C-10.68 84 -9.36 84 -8 84 C-8 81.36 -8 78.72 -8 76 C-5.36 76 -2.72 76 0 76 C0 73.36 0 70.72 0 68 C1.32 68 2.64 68 4 68 C4 65.36 4 62.72 4 60 C5.32 60 6.64 60 8 60 C8 56.04 8 52.08 8 48 C9.32 48 10.64 48 12 48 C12 41.4 12 34.8 12 28 C10.68 28 9.36 28 8 28 C8 24.04 8 20.08 8 16 C6.68 16 5.36 16 4 16 C4 13.36 4 10.72 4 8 C2.68 8 1.36 8 0 8 C0 5.36 0 2.72 0 0 Z " fill="#744140" transform="translate(76,0)"/>
<path d="M0 0 C10.56 0 21.12 0 32 0 C32 1.32 32 2.64 32 4 C29.36 4 26.72 4 24 4 C24 5.32 24 6.64 24 8 C18.72 8 13.44 8 8 8 C8 9.32 8 10.64 8 12 C11.96 12 15.92 12 20 12 C20 15.96 20 19.92 20 24 C21.32 24 22.64 24 24 24 C24 26.64 24 29.28 24 32 C25.32 32 26.64 32 28 32 C28 33.32 28 34.64 28 36 C26.68 36 25.36 36 24 36 C24 37.32 24 38.64 24 40 C25.32 40 26.64 40 28 40 C28 41.32 28 42.64 28 44 C33.28 44 38.56 44 44 44 C44 45.32 44 46.64 44 48 C42.68 48 41.36 48 40 48 C40 49.32 40 50.64 40 52 C38.68 52 37.36 52 36 52 C36 50.68 36 49.36 36 48 C30.72 48 25.44 48 20 48 C20 46.68 20 45.36 20 44 C18.68 44 17.36 44 16 44 C16 40.04 16 36.08 16 32 C14.68 32 13.36 32 12 32 C12 30.68 12 29.36 12 28 C10.68 28 9.36 28 8 28 C8 31.96 8 35.92 8 40 C9.32 40 10.64 40 12 40 C12 43.96 12 47.92 12 52 C10.68 52 9.36 52 8 52 C8 53.32 8 54.64 8 56 C6.68 56 5.36 56 4 56 C4 54.68 4 53.36 4 52 C2.68 52 1.36 52 0 52 C0 34.84 0 17.68 0 0 Z " fill="#CE8C48" transform="translate(0,0)"/>
<path d="M0 0 C2.64 0 5.28 0 8 0 C8 3.96 8 7.92 8 12 C9.32 12 10.64 12 12 12 C12 17.28 12 22.56 12 28 C-3.84 28 -19.68 28 -36 28 C-36 26.68 -36 25.36 -36 24 C-29.4 24 -22.8 24 -16 24 C-16 22.68 -16 21.36 -16 20 C-13.36 20 -10.72 20 -8 20 C-8 18.68 -8 17.36 -8 16 C-6.68 16 -5.36 16 -4 16 C-4 13.36 -4 10.72 -4 8 C-2.68 8 -1.36 8 0 8 C0 5.36 0 2.72 0 0 Z " fill="#B5927E" transform="translate(84,68)"/>
<path d="M0 0 C11.88 0 23.76 0 36 0 C36 1.32 36 2.64 36 4 C37.32 4 38.64 4 40 4 C40 6.64 40 9.28 40 12 C41.32 12 42.64 12 44 12 C44 15.96 44 19.92 44 24 C45.32 24 46.64 24 48 24 C48 30.6 48 37.2 48 44 C46.68 44 45.36 44 44 44 C44 40.04 44 36.08 44 32 C42.68 32 41.36 32 40 32 C40 30.68 40 29.36 40 28 C38.68 28 37.36 28 36 28 C36 24.04 36 20.08 36 16 C34.68 16 33.36 16 32 16 C32 14.68 32 13.36 32 12 C33.32 12 34.64 12 36 12 C36 10.68 36 9.36 36 8 C33.36 8 30.72 8 28 8 C28 6.68 28 5.36 28 4 C25.36 4 22.72 4 20 4 C20 5.32 20 6.64 20 8 C14.72 8 9.44 8 4 8 C4 6.68 4 5.36 4 4 C2.68 4 1.36 4 0 4 C0 2.68 0 1.36 0 0 Z " fill="#E0B246" transform="translate(40,4)"/>
<path d="M0 0 C1.32 0 2.64 0 4 0 C4 1.32 4 2.64 4 4 C5.32 4 6.64 4 8 4 C8 9.28 8 14.56 8 20 C9.32 20 10.64 20 12 20 C12 25.28 12 30.56 12 36 C13.32 36 14.64 36 16 36 C16 38.64 16 41.28 16 44 C10.72 44 5.44 44 0 44 C0 29.48 0 14.96 0 0 Z " fill="#463139" transform="translate(0,52)"/>
<path d="M0 0 C14.52 0 29.04 0 44 0 C44 1.32 44 2.64 44 4 C32.12 4 20.24 4 8 4 C8 5.32 8 6.64 8 8 C9.32 8 10.64 8 12 8 C12 9.32 12 10.64 12 12 C15.96 12 19.92 12 24 12 C24 14.64 24 17.28 24 20 C22.68 20 21.36 20 20 20 C20 21.32 20 22.64 20 24 C14.72 24 9.44 24 4 24 C4 22.68 4 21.36 4 20 C6.64 20 9.28 20 12 20 C12 18.68 12 17.36 12 16 C10.68 16 9.36 16 8 16 C8 14.68 8 13.36 8 12 C5.36 12 2.72 12 0 12 C0 10.68 0 9.36 0 8 C-2.64 8 -5.28 8 -8 8 C-8 6.68 -8 5.36 -8 4 C-5.36 4 -2.72 4 0 4 C0 2.68 0 1.36 0 0 Z " fill="#85524C" transform="translate(32,0)"/>
<path d="M0 0 C6.6 0 13.2 0 20 0 C20 10.56 20 21.12 20 32 C18.68 32 17.36 32 16 32 C16 30.68 16 29.36 16 28 C13.36 28 10.72 28 8 28 C8 24.04 8 20.08 8 16 C6.68 16 5.36 16 4 16 C4 13.36 4 10.72 4 8 C2.68 8 1.36 8 0 8 C0 5.36 0 2.72 0 0 Z " fill="#402E37" transform="translate(76,0)"/>
<path d="M0 0 C1.32 0 2.64 0 4 0 C4 1.32 4 2.64 4 4 C5.32 4 6.64 4 8 4 C8 5.32 8 6.64 8 8 C9.32 8 10.64 8 12 8 C12 9.32 12 10.64 12 12 C13.32 12 14.64 12 16 12 C16 14.64 16 17.28 16 20 C17.32 20 18.64 20 20 20 C20 22.64 20 25.28 20 28 C18.68 28 17.36 28 16 28 C16 30.64 16 33.28 16 36 C13.36 36 10.72 36 8 36 C8 33.36 8 30.72 8 28 C6.68 28 5.36 28 4 28 C4 22.72 4 17.44 4 12 C2.68 12 1.36 12 0 12 C0 8.04 0 4.08 0 0 Z " fill="#D19147" transform="translate(8,60)"/>
<path d="M0 0 C6.6 0 13.2 0 20 0 C20 2.64 20 5.28 20 8 C18.68 8 17.36 8 16 8 C16 9.32 16 10.64 16 12 C8.08 12 0.16 12 -8 12 C-8 9.36 -8 6.72 -8 4 C-6.68 4 -5.36 4 -4 4 C-4 5.32 -4 6.64 -4 8 C-2.68 8 -1.36 8 0 8 C0 5.36 0 2.72 0 0 Z " fill="#3E2D36" transform="translate(32,84)"/>
<path d="M0 0 C10.56 0 21.12 0 32 0 C32 1.32 32 2.64 32 4 C29.36 4 26.72 4 24 4 C24 5.32 24 6.64 24 8 C18.72 8 13.44 8 8 8 C8 9.32 8 10.64 8 12 C5.36 12 2.72 12 0 12 C0 8.04 0 4.08 0 0 Z " fill="#C69E8F" transform="translate(0,0)"/>
<path d="M0 0 C1.32 0 2.64 0 4 0 C4 1.32 4 2.64 4 4 C5.32 4 6.64 4 8 4 C8 13.24 8 22.48 8 32 C5.36 32 2.72 32 0 32 C0 21.44 0 10.88 0 0 Z " fill="#9C5642" transform="translate(88,28)"/>
<path d="M0 0 C5.28 0 10.56 0 16 0 C16 1.32 16 2.64 16 4 C17.32 4 18.64 4 20 4 C20 6.64 20 9.28 20 12 C21.32 12 22.64 12 24 12 C24 15.96 24 19.92 24 24 C21.36 24 18.72 24 16 24 C16 21.36 16 18.72 16 16 C14.68 16 13.36 16 12 16 C12 12.04 12 8.08 12 4 C8.04 4 4.08 4 0 4 C0 2.68 0 1.36 0 0 Z " fill="#9D5643" transform="translate(8,8)"/>
<path d="M0 0 C2.64 0 5.28 0 8 0 C8 3.96 8 7.92 8 12 C10.64 12 13.28 12 16 12 C16 13.32 16 14.64 16 16 C21.28 16 26.56 16 32 16 C32 17.32 32 18.64 32 20 C30.68 20 29.36 20 28 20 C28 21.32 28 22.64 28 24 C26.68 24 25.36 24 24 24 C24 22.68 24 21.36 24 20 C18.72 20 13.44 20 8 20 C8 18.68 8 17.36 8 16 C6.68 16 5.36 16 4 16 C4 12.04 4 8.08 4 4 C2.68 4 1.36 4 0 4 C0 2.68 0 1.36 0 0 Z " fill="#CF896E" transform="translate(12,28)"/>
<path d="M0 0 C1.32 0 2.64 0 4 0 C4 1.32 4 2.64 4 4 C6.64 4 9.28 4 12 4 C12 5.32 12 6.64 12 8 C10.68 8 9.36 8 8 8 C8 9.32 8 10.64 8 12 C9.32 12 10.64 12 12 12 C12 13.32 12 14.64 12 16 C5.4 16 -1.2 16 -8 16 C-8 13.36 -8 10.72 -8 8 C-6.68 8 -5.36 8 -4 8 C-4 6.68 -4 5.36 -4 4 C-2.68 4 -1.36 4 0 4 C0 2.68 0 1.36 0 0 Z " fill="#302927" transform="translate(60,28)"/>
<path d="M0 0 C1.32 0 2.64 0 4 0 C4 1.32 4 2.64 4 4 C5.32 4 6.64 4 8 4 C8 5.32 8 6.64 8 8 C9.32 8 10.64 8 12 8 C12 9.32 12 10.64 12 12 C13.32 12 14.64 12 16 12 C16 15.96 16 19.92 16 24 C14.68 24 13.36 24 12 24 C12 22.68 12 21.36 12 20 C9.36 20 6.72 20 4 20 C4 16.04 4 12.08 4 8 C2.68 8 1.36 8 0 8 C0 5.36 0 2.72 0 0 Z " fill="#201A1E" transform="translate(80,8)"/>
<path d="M0 0 C1.32 0 2.64 0 4 0 C4 1.32 4 2.64 4 4 C5.32 4 6.64 4 8 4 C8 6.64 8 9.28 8 12 C9.32 12 10.64 12 12 12 C12 14.64 12 17.28 12 20 C10.68 20 9.36 20 8 20 C8 22.64 8 25.28 8 28 C6.68 28 5.36 28 4 28 C4 22.72 4 17.44 4 12 C2.68 12 1.36 12 0 12 C0 8.04 0 4.08 0 0 Z " fill="#A55F44" transform="translate(16,68)"/>
<path d="M0 0 C2.64 0 5.28 0 8 0 C8 1.32 8 2.64 8 4 C10.64 4 13.28 4 16 4 C16 5.32 16 6.64 16 8 C14.68 8 13.36 8 12 8 C12 9.32 12 10.64 12 12 C6.72 12 1.44 12 -4 12 C-4 9.36 -4 6.72 -4 4 C-2.68 4 -1.36 4 0 4 C0 2.68 0 1.36 0 0 Z " fill="#9D5643" transform="translate(60,8)"/>
<path d="M0 0 C1.32 0 2.64 0 4 0 C4 3.96 4 7.92 4 12 C5.32 12 6.64 12 8 12 C8 13.32 8 14.64 8 16 C10.64 16 13.28 16 16 16 C16 17.32 16 18.64 16 20 C13.36 20 10.72 20 8 20 C8 22.64 8 25.28 8 28 C6.68 28 5.36 28 4 28 C4 24.04 4 20.08 4 16 C2.68 16 1.36 16 0 16 C0 10.72 0 5.44 0 0 Z " fill="#75423F" transform="translate(24,64)"/>
<path d="M0 0 C1.32 0 2.64 0 4 0 C4 1.32 4 2.64 4 4 C5.32 4 6.64 4 8 4 C8 5.32 8 6.64 8 8 C9.32 8 10.64 8 12 8 C12 10.64 12 13.28 12 16 C13.32 16 14.64 16 16 16 C16 17.32 16 18.64 16 20 C14.68 20 13.36 20 12 20 C12 21.32 12 22.64 12 24 C10.68 24 9.36 24 8 24 C8 20.04 8 16.08 8 12 C5.36 12 2.72 12 0 12 C0 8.04 0 4.08 0 0 Z " fill="#DFAD46" transform="translate(12,16)"/>
<path d="M0 0 C1.32 0 2.64 0 4 0 C4 2.64 4 5.28 4 8 C5.32 8 6.64 8 8 8 C8 9.32 8 10.64 8 12 C5.36 12 2.72 12 0 12 C0 13.32 0 14.64 0 16 C-5.28 16 -10.56 16 -16 16 C-16 14.68 -16 13.36 -16 12 C-12.04 12 -8.08 12 -4 12 C-4 10.68 -4 9.36 -4 8 C-2.68 8 -1.36 8 0 8 C0 5.36 0 2.72 0 0 Z " fill="#89514D" transform="translate(68,76)"/>
<path d="M0 0 C6.6 0 13.2 0 20 0 C20 2.64 20 5.28 20 8 C18.68 8 17.36 8 16 8 C16 9.32 16 10.64 16 12 C14.68 12 13.36 12 12 12 C12 10.68 12 9.36 12 8 C10.68 8 9.36 8 8 8 C8 6.68 8 5.36 8 4 C5.36 4 2.72 4 0 4 C0 2.68 0 1.36 0 0 Z " fill="#312A28" transform="translate(16,48)"/>
<path d="M0 0 C1.32 0 2.64 0 4 0 C4 2.64 4 5.28 4 8 C5.32 8 6.64 8 8 8 C8 14.6 8 21.2 8 28 C6.68 28 5.36 28 4 28 C4 24.04 4 20.08 4 16 C2.68 16 1.36 16 0 16 C0 10.72 0 5.44 0 0 Z " fill="#E2B346" transform="translate(80,20)"/>
<path d="M0 0 C6.6 0 13.2 0 20 0 C20 2.64 20 5.28 20 8 C18.68 8 17.36 8 16 8 C16 6.68 16 5.36 16 4 C14.68 4 13.36 4 12 4 C12 7.96 12 11.92 12 16 C10.68 16 9.36 16 8 16 C8 12.04 8 8.08 8 4 C5.36 4 2.72 4 0 4 C0 2.68 0 1.36 0 0 Z " fill="#CD8848" transform="translate(0,12)"/>
<path d="M0 0 C1.32 0 2.64 0 4 0 C4 6.6 4 13.2 4 20 C1.36 20 -1.28 20 -4 20 C-4 16.04 -4 12.08 -4 8 C-2.68 8 -1.36 8 0 8 C0 5.36 0 2.72 0 0 Z " fill="#D58F71" transform="translate(72,44)"/>
<path d="M0 0 C1.32 0 2.64 0 4 0 C4 2.64 4 5.28 4 8 C5.32 8 6.64 8 8 8 C8 9.32 8 10.64 8 12 C6.68 12 5.36 12 4 12 C4 15.96 4 19.92 4 24 C2.68 24 1.36 24 0 24 C0 20.04 0 16.08 0 12 C-1.32 12 -2.64 12 -4 12 C-4 10.68 -4 9.36 -4 8 C-2.68 8 -1.36 8 0 8 C0 5.36 0 2.72 0 0 Z " fill="#C88747" transform="translate(76,8)"/>
<path d="M0 0 C2.64 0 5.28 0 8 0 C8 3.96 8 7.92 8 12 C6.68 12 5.36 12 4 12 C4 13.32 4 14.64 4 16 C2.68 16 1.36 16 0 16 C0 10.72 0 5.44 0 0 Z " fill="#A86344" transform="translate(4,40)"/>
<path d="M0 0 C2.64 0 5.28 0 8 0 C8 3.96 8 7.92 8 12 C9.32 12 10.64 12 12 12 C12 14.64 12 17.28 12 20 C10.68 20 9.36 20 8 20 C8 18.68 8 17.36 8 16 C6.68 16 5.36 16 4 16 C4 12.04 4 8.08 4 4 C2.68 4 1.36 4 0 4 C0 2.68 0 1.36 0 0 Z " fill="#AB5D56" transform="translate(12,28)"/>
<path d="M0 0 C5.28 0 10.56 0 16 0 C16 1.32 16 2.64 16 4 C14.68 4 13.36 4 12 4 C12 5.32 12 6.64 12 8 C10.68 8 9.36 8 8 8 C8 9.32 8 10.64 8 12 C6.68 12 5.36 12 4 12 C4 9.36 4 6.72 4 4 C2.68 4 1.36 4 0 4 C0 2.68 0 1.36 0 0 Z " fill="#D58F71" transform="translate(40,24)"/>
<path d="M0 0 C1.32 0 2.64 0 4 0 C4 1.32 4 2.64 4 4 C5.32 4 6.64 4 8 4 C8 7.96 8 11.92 8 16 C5.36 16 2.72 16 0 16 C0 10.72 0 5.44 0 0 Z " fill="#723D3C" transform="translate(24,16)"/>
<path d="M0 0 C2.64 0 5.28 0 8 0 C8 1.32 8 2.64 8 4 C10.64 4 13.28 4 16 4 C16 5.32 16 6.64 16 8 C17.32 8 18.64 8 20 8 C20 9.32 20 10.64 20 12 C17.36 12 14.72 12 12 12 C12 10.68 12 9.36 12 8 C9.36 8 6.72 8 4 8 C4 6.68 4 5.36 4 4 C2.68 4 1.36 4 0 4 C0 2.68 0 1.36 0 0 Z " fill="#D79F47" transform="translate(24,8)"/>
<path d="M0 0 C6.6 0 13.2 0 20 0 C20 2.64 20 5.28 20 8 C17.36 8 14.72 8 12 8 C12 6.68 12 5.36 12 4 C8.04 4 4.08 4 0 4 C0 2.68 0 1.36 0 0 Z " fill="#DAA547" transform="translate(56,4)"/>
<path d="M0 0 C7.92 0 15.84 0 24 0 C24 1.32 24 2.64 24 4 C16.08 4 8.16 4 0 4 C0 2.68 0 1.36 0 0 Z " fill="#AB8676" transform="translate(48,92)"/>
<path d="M0 0 C1.32 0 2.64 0 4 0 C4 6.6 4 13.2 4 20 C2.68 20 1.36 20 0 20 C0 16.04 0 12.08 0 8 C-1.32 8 -2.64 8 -4 8 C-4 6.68 -4 5.36 -4 4 C-2.68 4 -1.36 4 0 4 C0 2.68 0 1.36 0 0 Z " fill="#715453" transform="translate(92,60)"/>
<path d="M0 0 C5.28 0 10.56 0 16 0 C16 1.32 16 2.64 16 4 C13.36 4 10.72 4 8 4 C8 5.32 8 6.64 8 8 C5.36 8 2.72 8 0 8 C0 5.36 0 2.72 0 0 Z " fill="#C49C90" transform="translate(16,0)"/>
<path d="M0 0 C3.96 0 7.92 0 12 0 C12 2.64 12 5.28 12 8 C9.36 8 6.72 8 4 8 C4 6.68 4 5.36 4 4 C2.68 4 1.36 4 0 4 C0 2.68 0 1.36 0 0 Z " fill="#B89580" transform="translate(68,88)"/>
<path d="M0 0 C1.32 0 2.64 0 4 0 C4 1.32 4 2.64 4 4 C6.64 4 9.28 4 12 4 C12 5.32 12 6.64 12 8 C10.68 8 9.36 8 8 8 C8 9.32 8 10.64 8 12 C6.68 12 5.36 12 4 12 C4 10.68 4 9.36 4 8 C2.68 8 1.36 8 0 8 C0 5.36 0 2.72 0 0 Z " fill="#47302F" transform="translate(60,28)"/>
<path d="M0 0 C2.64 0 5.28 0 8 0 C8 2.64 8 5.28 8 8 C4.04 8 0.08 8 -4 8 C-4 6.68 -4 5.36 -4 4 C-2.68 4 -1.36 4 0 4 C0 2.68 0 1.36 0 0 Z " fill="#CC8648" transform="translate(60,8)"/>
<path d="M0 0 C1.32 0 2.64 0 4 0 C4 3.96 4 7.92 4 12 C2.68 12 1.36 12 0 12 C0 10.68 0 9.36 0 8 C-2.64 8 -5.28 8 -8 8 C-8 6.68 -8 5.36 -8 4 C-5.36 4 -2.72 4 0 4 C0 2.68 0 1.36 0 0 Z " fill="#955F58" transform="translate(32,0)"/>
<path d="M0 0 C2.64 0 5.28 0 8 0 C8 3.96 8 7.92 8 12 C9.32 12 10.64 12 12 12 C12 14.64 12 17.28 12 20 C10.68 20 9.36 20 8 20 C6.74566542 16.23699626 6.89304578 12.72789091 6.9375 8.8125 C6.94201172 8.06291016 6.94652344 7.31332031 6.95117188 6.54101562 C6.96293646 4.69397617 6.98087135 2.84697787 7 1 C6.34 1 5.68 1 5 1 C5 1.99 5 2.98 5 4 C3.35 4 1.7 4 0 4 C0 2.68 0 1.36 0 0 Z " fill="#A47F71" transform="translate(84,68)"/>
<path d="M0 0 C1.32 0 2.64 0 4 0 C4 2.64 4 5.28 4 8 C0.04 8 -3.92 8 -8 8 C-8 6.68 -8 5.36 -8 4 C-5.36 4 -2.72 4 0 4 C0 2.68 0 1.36 0 0 Z " fill="#93534D" transform="translate(48,68)"/>
<path d="M0 0 C5.28 0 10.56 0 16 0 C16 1.32 16 2.64 16 4 C10.72 4 5.44 4 0 4 C0 2.68 0 1.36 0 0 Z " fill="#784441" transform="translate(52,64)"/>
<path d="M0 0 C1.32 0 2.64 0 4 0 C4 1.32 4 2.64 4 4 C5.32 4 6.64 4 8 4 C8 5.32 8 6.64 8 8 C6.68 8 5.36 8 4 8 C4 9.32 4 10.64 4 12 C2.68 12 1.36 12 0 12 C0 8.04 0 4.08 0 0 Z " fill="#CA8648" transform="translate(8,60)"/>
<path d="M0 0 C5.28 0 10.56 0 16 0 C16 1.32 16 2.64 16 4 C10.72 4 5.44 4 0 4 C0 2.68 0 1.36 0 0 Z " fill="#9C5543" transform="translate(36,20)"/>
<path d="M0 0 C1.32 0 2.64 0 4 0 C4 1.32 4 2.64 4 4 C5.32 4 6.64 4 8 4 C8 6.64 8 9.28 8 12 C6.68 12 5.36 12 4 12 C4 10.68 4 9.36 4 8 C2.68 8 1.36 8 0 8 C0 5.36 0 2.72 0 0 Z " fill="#1F181A" transform="translate(80,8)"/>
<path d="M0 0 C3.96 0 7.92 0 12 0 C12 1.32 12 2.64 12 4 C9.36 4 6.72 4 4 4 C4 5.32 4 6.64 4 8 C2.68 8 1.36 8 0 8 C0 5.36 0 2.72 0 0 Z " fill="#F2EEDC" transform="translate(0,0)"/>
<path d="M0 0 C3.96 0 7.92 0 12 0 C12 1.32 12 2.64 12 4 C8.04 4 4.08 4 0 4 C0 2.68 0 1.36 0 0 Z " fill="#B39380" transform="translate(48,92)"/>
<path d="M0 0 C1.32 0 2.64 0 4 0 C4 2.64 4 5.28 4 8 C1.36 8 -1.28 8 -4 8 C-4 6.68 -4 5.36 -4 4 C-2.68 4 -1.36 4 0 4 C0 2.68 0 1.36 0 0 Z " fill="#D5BFA2" transform="translate(92,88)"/>
<path d="M0 0 C3.96 0 7.92 0 12 0 C12 1.32 12 2.64 12 4 C8.04 4 4.08 4 0 4 C0 2.68 0 1.36 0 0 Z " fill="#D28D70" transform="translate(52,84)"/>
<path d="M0 0 C3.96 0 7.92 0 12 0 C12 1.32 12 2.64 12 4 C8.04 4 4.08 4 0 4 C0 2.68 0 1.36 0 0 Z " fill="#6F3C3C" transform="translate(40,84)"/>
<path d="M0 0 C1.32 0 2.64 0 4 0 C4 3.96 4 7.92 4 12 C2.68 12 1.36 12 0 12 C0 8.04 0 4.08 0 0 Z " fill="#8F4E41" transform="translate(92,48)"/>
<path d="M0 0 C1.32 0 2.64 0 4 0 C4 3.96 4 7.92 4 12 C2.68 12 1.36 12 0 12 C0 8.04 0 4.08 0 0 Z " fill="#C98448" transform="translate(88,48)"/>
<path d="M0 0 C1.32 0 2.64 0 4 0 C4 3.96 4 7.92 4 12 C2.68 12 1.36 12 0 12 C0 8.04 0 4.08 0 0 Z " fill="#D39747" transform="translate(0,40)"/>
<path d="M0 0 C1.32 0 2.64 0 4 0 C4 3.96 4 7.92 4 12 C2.68 12 1.36 12 0 12 C0 8.04 0 4.08 0 0 Z " fill="#CB8548" transform="translate(8,40)"/>
<path d="M0 0 C2.64 0 5.28 0 8 0 C8 1.32 8 2.64 8 4 C6.68 4 5.36 4 4 4 C4 5.32 4 6.64 4 8 C2.68 8 1.36 8 0 8 C0 5.36 0 2.72 0 0 Z " fill="#CF8956" transform="translate(20,32)"/>
<path d="M0 0 C1.32 0 2.64 0 4 0 C4 3.96 4 7.92 4 12 C2.68 12 1.36 12 0 12 C0 8.04 0 4.08 0 0 Z " fill="#9E5743" transform="translate(0,28)"/>
<path d="M0 0 C1.32 0 2.64 0 4 0 C4 3.96 4 7.92 4 12 C2.68 12 1.36 12 0 12 C0 8.04 0 4.08 0 0 Z " fill="#A35949" transform="translate(8,16)"/>
<path d="M0 0 C3.96 0 7.92 0 12 0 C12 1.32 12 2.64 12 4 C8.04 4 4.08 4 0 4 C0 2.68 0 1.36 0 0 Z " fill="#723F3D" transform="translate(44,16)"/>
<path d="M0 0 C3.96 0 7.92 0 12 0 C12 1.32 12 2.64 12 4 C8.04 4 4.08 4 0 4 C0 2.68 0 1.36 0 0 Z " fill="#9A5442" transform="translate(44,12)"/>
<path d="M0 0 C2.64 0 5.28 0 8 0 C8 2.64 8 5.28 8 8 C6.68 8 5.36 8 4 8 C4 6.68 4 5.36 4 4 C2.68 4 1.36 4 0 4 C0 2.68 0 1.36 0 0 Z " fill="#CB8648" transform="translate(24,8)"/>
<path d="M0 0 C3.96 0 7.92 0 12 0 C12 1.32 12 2.64 12 4 C8.04 4 4.08 4 0 4 C0 2.68 0 1.36 0 0 Z " fill="#855454" transform="translate(8,8)"/>
<path d="M0 0 C0 1.32 0 2.64 0 4 C-1.32 4 -2.64 4 -4 4 C-4 5.32 -4 6.64 -4 8 C-5.32 8 -6.64 8 -8 8 C-8 5.69 -8 3.38 -8 1 C-5.10765685 0.17361624 -3.11257569 0 0 0 Z " fill="#2C2329" transform="translate(52,88)"/>
<path d="M0 0 C1.32 0 2.64 0 4 0 C4 1.32 4 2.64 4 4 C3.01 4 2.02 4 1 4 C1 4.99 1 5.98 1 7 C7.27 7 13.54 7 20 7 C20 7.33 20 7.66 20 8 C13.4 8 6.8 8 0 8 C0 5.36 0 2.72 0 0 Z " fill="#573B37" transform="translate(52,36)"/>
<path d="M0 0 C4.95 0 9.9 0 15 0 C15 0.66 15 1.32 15 2 C9.91913204 2.84681133 5.15171623 3.09038099 0 3 C0 2.01 0 1.02 0 0 Z " fill="#703C3D" transform="translate(52,89)"/>
<path d="M0 0 C1.32 0 2.64 0 4 0 C4 2.64 4 5.28 4 8 C2.68 8 1.36 8 0 8 C0 5.36 0 2.72 0 0 Z " fill="#C98548" transform="translate(16,88)"/>
<path d="M0 0 C1.32 0 2.64 0 4 0 C4 2.64 4 5.28 4 8 C2.68 8 1.36 8 0 8 C0 5.36 0 2.72 0 0 Z " fill="#D5BFA2" transform="translate(76,88)"/>
<path d="M0 0 C1.32 0 2.64 0 4 0 C4 2.64 4 5.28 4 8 C2.68 8 1.36 8 0 8 C0 5.36 0 2.72 0 0 Z " fill="#E3B746" transform="translate(16,80)"/>
<path d="M0 0 C1.32 0 2.64 0 4 0 C4 2.64 4 5.28 4 8 C2.68 8 1.36 8 0 8 C0 5.36 0 2.72 0 0 Z " fill="#936A63" transform="translate(92,80)"/>
<path d="M0 0 C1.32 0 2.64 0 4 0 C4 2.64 4 5.28 4 8 C2.68 8 1.36 8 0 8 C0 5.36 0 2.72 0 0 Z " fill="#723E3E" transform="translate(72,76)"/>
<path d="M0 0 C1.32 0 2.64 0 4 0 C4 2.64 4 5.28 4 8 C2.68 8 1.36 8 0 8 C0 5.36 0 2.72 0 0 Z " fill="#AE6058" transform="translate(68,76)"/>
<path d="M0 0 C1.32 0 2.64 0 4 0 C4 2.64 4 5.28 4 8 C2.68 8 1.36 8 0 8 C0 5.36 0 2.72 0 0 Z " fill="#916761" transform="translate(76,76)"/>
<path d="M0 0 C2.64 0 5.28 0 8 0 C8 1.32 8 2.64 8 4 C5.36 4 2.72 4 0 4 C0 2.68 0 1.36 0 0 Z " fill="#764240" transform="translate(40,72)"/>
<path d="M0 0 C1.32 0 2.64 0 4 0 C4 2.64 4 5.28 4 8 C2.68 8 1.36 8 0 8 C0 5.36 0 2.72 0 0 Z " fill="#AB5E57" transform="translate(24,64)"/>
<path d="M0 0 C2.64 0 5.28 0 8 0 C8 1.32 8 2.64 8 4 C5.36 4 2.72 4 0 4 C0 2.68 0 1.36 0 0 Z " fill="#B0635A" transform="translate(52,64)"/>
<path d="M0 0 C1.32 0 2.64 0 4 0 C4 2.64 4 5.28 4 8 C2.68 8 1.36 8 0 8 C0 5.36 0 2.72 0 0 Z " fill="#77423F" transform="translate(68,56)"/>
<path d="M0 0 C2.64 0 5.28 0 8 0 C8 1.32 8 2.64 8 4 C5.36 4 2.72 4 0 4 C0 2.68 0 1.36 0 0 Z " fill="#93534D" transform="translate(44,56)"/>
<path d="M0 0 C1.32 0 2.64 0 4 0 C4 2.64 4 5.28 4 8 C2.68 8 1.36 8 0 8 C0 5.36 0 2.72 0 0 Z " fill="#AA5C56" transform="translate(92,40)"/>
<path d="M0 0 C1.32 0 2.64 0 4 0 C4 2.64 4 5.28 4 8 C2.68 8 1.36 8 0 8 C0 5.36 0 2.72 0 0 Z " fill="#CD8748" transform="translate(84,40)"/>
<path d="M0 0 C2.64 0 5.28 0 8 0 C8 1.32 8 2.64 8 4 C5.36 4 2.72 4 0 4 C0 2.68 0 1.36 0 0 Z " fill="#D38E71" transform="translate(44,40)"/>
<path d="M0 0 C1.32 0 2.64 0 4 0 C4 2.64 4 5.28 4 8 C2.68 8 1.36 8 0 8 C0 5.36 0 2.72 0 0 Z " fill="#703C3B" transform="translate(92,32)"/>
<path d="M0 0 C1.32 0 2.64 0 4 0 C4 2.64 4 5.28 4 8 C2.68 8 1.36 8 0 8 C0 5.36 0 2.72 0 0 Z " fill="#6E433F" transform="translate(60,28)"/>
<path d="M0 0 C1.32 0 2.64 0 4 0 C4 2.64 4 5.28 4 8 C2.68 8 1.36 8 0 8 C0 5.36 0 2.72 0 0 Z " fill="#733E3D" transform="translate(32,32)"/>
<path d="M0 0 C2.64 0 5.28 0 8 0 C8 1.32 8 2.64 8 4 C5.36 4 2.72 4 0 4 C0 2.68 0 1.36 0 0 Z " fill="#BD734F" transform="translate(12,28)"/>
<path d="M0 0 C1.32 0 2.64 0 4 0 C4 2.64 4 5.28 4 8 C2.68 8 1.36 8 0 8 C0 5.36 0 2.72 0 0 Z " fill="#7F493F" transform="translate(84,20)"/>
<path d="M0 0 C1.32 0 2.64 0 4 0 C4 2.64 4 5.28 4 8 C2.68 8 1.36 8 0 8 C0 5.36 0 2.72 0 0 Z " fill="#9B5542" transform="translate(24,24)"/>
<path d="M0 0 C2.64 0 5.28 0 8 0 C8 1.32 8 2.64 8 4 C5.36 4 2.72 4 0 4 C0 2.68 0 1.36 0 0 Z " fill="#9C5743" transform="translate(28,16)"/>
<path d="M0 0 C2.64 0 5.28 0 8 0 C8 1.32 8 2.64 8 4 C5.36 4 2.72 4 0 4 C0 2.68 0 1.36 0 0 Z " fill="#865452" transform="translate(0,12)"/>
<path d="M0 0 C2.64 0 5.28 0 8 0 C8 1.32 8 2.64 8 4 C5.36 4 2.72 4 0 4 C0 2.68 0 1.36 0 0 Z " fill="#B7857C" transform="translate(0,8)"/>
<path d="M0 0 C2.64 0 5.28 0 8 0 C8 1.32 8 2.64 8 4 C5.36 4 2.72 4 0 4 C0 2.68 0 1.36 0 0 Z " fill="#9F5843" transform="translate(60,8)"/>
<path d="M0 0 C2.64 0 5.28 0 8 0 C8 1.32 8 2.64 8 4 C5.36 4 2.72 4 0 4 C0 2.68 0 1.36 0 0 Z " fill="#CF8A48" transform="translate(44,8)"/>
<path d="M0 0 C2.64 0 5.28 0 8 0 C8 1.32 8 2.64 8 4 C5.36 4 2.72 4 0 4 C0 2.68 0 1.36 0 0 Z " fill="#CC8848" transform="translate(56,4)"/>
<path d="M0 0 C1.32 0 2.64 0 4 0 C4 2.64 4 5.28 4 8 C2.68 8 1.36 8 0 8 C0 5.36 0 2.72 0 0 Z " fill="#1A1515" transform="translate(76,0)"/>
<path d="M0 0 C0.99 0 1.98 0 3 0 C3 2.31 3 4.62 3 7 C2.01 7 1.02 7 0 7 C0 4.69 0 2.38 0 0 Z " fill="#121013" transform="translate(89,20)"/>
<path d="M0 0 C0.99 0 1.98 0 3 0 C3 2.31 3 4.62 3 7 C2.01 7 1.02 7 0 7 C0 4.69 0 2.38 0 0 Z " fill="#141113" transform="translate(81,8)"/>
</svg>
